<svg width="66" height="40" viewBox="0 0 66 40" fill="none" xmlns="http://www.w3.org/2000/svg">
<path fill-rule="evenodd" clip-rule="evenodd" d="M65.9394 20.0032L65.992 19.2634L65.9924 19.2608L65.9922 19.2608L65.9921 19.2607L65.9892 19.2603L65.9751 19.2582L65.9148 19.2489C65.8605 19.2404 65.7785 19.2271 65.6709 19.2085C65.4556 19.1712 65.138 19.1127 64.7351 19.0288C63.9291 18.8609 62.7836 18.5914 61.4347 18.1868C58.7317 17.3759 55.2384 16.0298 52.0268 13.8887C48.8827 11.7926 46.4831 8.3499 44.857 5.36875C44.049 3.88733 43.4425 2.53974 43.0386 1.56345C42.8367 1.07565 42.6858 0.681496 42.5859 0.410826C42.5359 0.275515 42.4987 0.171141 42.4743 0.10144C42.4621 0.0665913 42.4531 0.0404186 42.4472 0.023386L42.4409 0.00475883L42.4395 0.00069809L42.4393 0C42.4393 7.43866e-05 42.4394 0.000200272 41.7279 0.237371C41.0163 0.474541 41.0164 0.474741 41.0165 0.474979L41.0167 0.475643L41.0174 0.477648L41.0196 0.484343L41.0278 0.508324C41.0348 0.528959 41.0451 0.558817 41.0587 0.597425C41.0857 0.674639 41.1257 0.786882 41.1787 0.930387C41.2847 1.21735 41.4426 1.62961 41.6525 2.13697C42.0721 3.15099 42.7011 4.54866 43.5402 6.08702C45.2084 9.14544 47.7502 12.8404 51.1948 15.1367C54.1158 17.0841 57.2368 18.3938 59.8304 19.2532H-6.86646e-05V20.7532H59.8304C57.2368 21.6126 54.1158 22.9224 51.1948 24.8697C47.7502 27.166 45.2084 30.861 43.5402 33.9194C42.7011 35.4578 42.0721 36.8555 41.6525 37.8695C41.4426 38.3768 41.2847 38.7891 41.1787 39.0761C41.1257 39.2196 41.0857 39.3318 41.0587 39.409C41.0451 39.4476 41.0348 39.4775 41.0278 39.4981L41.0196 39.5221L41.0174 39.5288L41.0167 39.5308L41.0165 39.5315C41.0164 39.5317 41.0163 39.5319 41.7279 39.7691C42.4394 40.0062 42.4393 40.0064 42.4393 40.0065L42.4395 40.0058L42.4409 40.0017L42.4472 39.9831C42.4531 39.966 42.4621 39.9399 42.4743 39.905C42.4987 39.8353 42.5359 39.7309 42.5859 39.5956C42.6858 39.325 42.8367 38.9308 43.0386 38.443C43.4425 37.4667 44.049 36.1191 44.857 34.6377C46.4831 31.6566 48.8827 28.2138 52.0268 26.1178C55.2384 23.9767 58.7317 22.6306 61.4347 21.8197C62.7836 21.415 63.9291 21.1456 64.7351 20.9777C65.138 20.8937 65.4556 20.8353 65.6709 20.798C65.7785 20.7794 65.8605 20.7661 65.9148 20.7575L65.9751 20.7482L65.9892 20.7461L65.9921 20.7457L65.9922 20.7457L65.9924 20.7457L65.992 20.7431L65.9394 20.0032Z" fill="#F2F6EF"/>
</svg>
