<svg width="32" height="32" viewBox="0 0 32 32" fill="none" xmlns="http://www.w3.org/2000/svg">
<path d="M30.6875 8.71249C30.6311 8.57639 30.5357 8.45994 30.4135 8.37768C30.2912 8.29543 30.1474 8.25102 30 8.24999H26.05C25.5618 7.35327 24.8436 6.60273 23.9693 6.07548C23.0949 5.54824 22.096 5.26331 21.075 5.24999C19.5411 5.24333 18.0669 5.8446 16.9753 6.92223C15.8836 7.99986 15.2632 9.46608 15.25 11V12.0875C9.95003 10.825 5.57503 6.51249 5.52503 6.47499C5.42867 6.37986 5.30834 6.3126 5.17683 6.28033C5.04532 6.24807 4.90752 6.25202 4.77807 6.29175C4.64862 6.33148 4.53234 6.40552 4.44157 6.50601C4.3508 6.60649 4.28894 6.72968 4.26253 6.86249C3.17503 12.8125 4.96253 16.7875 6.65003 19.075C7.54503 20.2998 8.64446 21.3612 9.90003 22.2125C7.96253 24.5625 4.77503 25.7875 4.73753 25.8C4.63103 25.8392 4.53502 25.9025 4.45697 25.9849C4.37892 26.0672 4.32094 26.1665 4.28753 26.275C4.25206 26.3808 4.2415 26.4934 4.25668 26.604C4.27186 26.7146 4.31236 26.8201 4.37503 26.9125C4.50003 27.1 5.72503 28.75 10 28.75C18.7125 28.75 26 22.0125 26.7 13.3625L30.525 9.52499C30.6335 9.42341 30.7074 9.29048 30.7365 9.14479C30.7657 8.99911 30.7485 8.84796 30.6875 8.71249ZM25.4375 12.5C25.3075 12.6297 25.2316 12.8039 25.225 12.9875C24.7125 20.9875 18.025 27.25 10 27.25C8.26253 27.25 7.15003 26.95 6.48753 26.65C7.90003 25.9375 10.2125 24.5375 11.625 22.4125C11.6813 22.3244 11.7192 22.2258 11.7364 22.1227C11.7535 22.0196 11.7497 21.9141 11.725 21.8125C11.6984 21.7085 11.6501 21.6114 11.5833 21.5274C11.5165 21.4434 11.4328 21.3744 11.3375 21.325C11.3125 21.325 9.43753 20.35 7.81253 18.125C5.87503 15.475 5.11253 12.2375 5.53753 8.49999C7.36253 10.05 11.3 12.975 15.875 13.7375C15.9827 13.7579 16.0936 13.7541 16.1996 13.7264C16.3056 13.6986 16.4041 13.6475 16.4879 13.5769C16.5718 13.5062 16.6388 13.4178 16.6841 13.318C16.7294 13.2182 16.752 13.1096 16.75 13V11C16.7599 9.86722 17.2177 8.7844 18.0234 7.98808C18.8291 7.19175 19.9172 6.74665 21.05 6.74999C21.8686 6.76181 22.6665 7.00839 23.349 7.46043C24.0315 7.91246 24.5698 8.55095 24.9 9.29999C24.9571 9.43474 25.0529 9.54948 25.1753 9.62961C25.2977 9.70974 25.4412 9.75165 25.5875 9.74999H28.1875L25.4375 12.5Z" fill="#213721"/>
</svg>
