<svg width="140" height="44" viewBox="0 0 140 44" fill="none" xmlns="http://www.w3.org/2000/svg">
<path d="M130.203 12.6951V21.6439C130.203 22.6967 131.355 22.8612 132.473 22.8612V23.0586H125.203V22.8612C126.321 22.8612 127.473 22.6967 127.473 21.6439V13.4189L120.86 1.47622C120.169 0.291824 119.61 0.226025 118.491 0.226025V0.0615234H125.795V0.226025C124.676 0.226025 123.393 0.357624 123.952 1.41042L129.644 11.7081H129.677L130.006 12.3332L135.73 1.47622C136.356 0.390525 135.467 0.226025 134.349 0.226025V0.0615234H139.678V0.226025C138.527 0.226025 136.75 0.423425 136.125 1.47622L130.203 12.6951Z" fill="#F2F6EF"/>
<path d="M99.6313 5.58891L101.112 0.0288086H115.028L116.509 5.58891L116.344 5.62181L115.094 1.47641C114.765 0.55521 114.14 0.39071 113.087 0.39071H111.64C110.554 0.39071 109.436 0.39071 109.436 1.44351V21.6441C109.436 22.6969 110.587 22.8614 111.706 22.8614V23.0588H104.402V22.8614C105.553 22.8614 106.705 22.6969 106.705 21.6441V1.44351C106.705 0.39071 105.586 0.39071 104.468 0.39071H103.053C102 0.39071 101.342 0.55521 101.046 1.47641L99.7959 5.62181L99.6313 5.58891Z" fill="#F2F6EF"/>
<path d="M92.9538 12.2674H92.7893C92.7893 8.68132 91.8681 8.12202 90.7166 8.12202H89.7954C88.8084 8.12202 87.7556 8.25362 86.7686 8.51682V21.6439C86.7686 22.6967 87.8872 22.6967 89.0058 22.6967H94.2369C95.2897 22.6967 95.9477 22.5651 96.2438 21.611L97.494 17.4656L97.6585 17.4985L96.178 23.0586H81.7678V22.8941C82.8864 22.8941 84.0379 22.6967 84.0379 21.6439V9.79992C82.7877 10.7211 81.9323 12.07 81.9323 13.9124H81.7678C81.7678 11.9055 82.689 10.425 84.0379 9.43802V1.47622C84.0379 0.390525 82.8864 0.226025 81.7678 0.226025V0.0615234H96.178L97.6585 5.58872L97.494 5.65452L96.2438 1.47622C95.9477 0.555025 95.2897 0.390525 94.2369 0.390525H89.0058C87.8872 0.390525 86.7686 0.390525 86.7686 1.47622V8.18782C87.7556 7.92462 88.8084 7.79303 89.7954 7.79303H90.7166C91.8681 7.79303 92.7893 7.56272 92.7893 5.42422H92.9538V12.2674Z" fill="#F2F6EF"/>
<path d="M66.0343 0.0615234V0.226025C65.0802 0.226025 64.0603 0.357624 63.9945 1.08142L69.6862 16.5773L70.5416 18.979L76.7268 1.47622H76.6939C77.0229 0.390525 75.5753 0.226025 74.4567 0.226025V0.0615234H79.7864V0.226025C78.7337 0.226025 77.5822 0.324724 77.1545 1.21302L69.4888 23.0586H69.1269V23.0257L61.198 1.47622C60.8361 0.258925 59.882 0.226025 58.7634 0.226025V0.0615234H66.0343Z" fill="#F2F6EF"/>
<path d="M45.9016 1.47622V21.6439C45.9016 22.6967 47.0202 22.7296 48.1059 22.7296H53.337C54.4227 22.7296 55.0478 22.5651 55.3768 21.6439L56.627 17.4656L56.7915 17.5314L55.311 23.0586H40.8679V22.8941C42.0194 22.8941 43.1709 22.7296 43.1709 21.6439V1.47622C43.1709 0.390525 42.0194 0.226025 40.8679 0.226025V0.0615234H48.1717V0.226025C47.0531 0.226025 45.9016 0.390525 45.9016 1.47622Z" fill="#F2F6EF"/>
<path d="M34.1901 12.2674H34.0256C34.0256 8.68132 33.1044 8.12202 31.9529 8.12202H31.0317C30.0447 8.12202 28.9919 8.25362 28.0049 8.51682V21.6439C28.0049 22.6967 29.1235 22.6967 30.2421 22.6967H35.4732C36.526 22.6967 37.184 22.5651 37.4801 21.611L38.7303 17.4656L38.8948 17.4985L37.4143 23.0586H23.0042V22.8941C24.1227 22.8941 25.2742 22.6967 25.2742 21.6439V9.79992C24.024 10.7211 23.1687 12.07 23.1687 13.9124H23.0042C23.0042 11.9055 23.9253 10.425 25.2742 9.43802V1.47622C25.2742 0.390525 24.1227 0.226025 23.0042 0.226025V0.0615234H37.4143L38.8948 5.58872L38.7303 5.65452L37.4801 1.47622C37.184 0.555025 36.526 0.390525 35.4732 0.390525H30.2421C29.1235 0.390525 28.0049 0.390525 28.0049 1.47622V8.18782C28.9919 7.92462 30.0447 7.79303 31.0317 7.79303H31.9529C33.1044 7.79303 34.0256 7.56272 34.0256 5.42422H34.1901V12.2674Z" fill="#F2F6EF"/>
<path d="M7.27087 0.0615234V0.226025C6.31678 0.226025 5.29688 0.357624 5.23108 1.08142L10.9228 16.5773L11.7782 18.979L17.9633 1.47622H17.9304C18.2594 0.390525 16.8118 0.226025 15.6932 0.226025V0.0615234H21.023V0.226025C19.9702 0.226025 18.8187 0.324724 18.391 1.21302L10.7254 23.0586H10.3635V23.0257L2.43459 1.47622C2.07269 0.258925 1.1186 0.226025 0 0.226025V0.0615234H7.27087Z" fill="#F2F6EF"/>
<path d="M114.94 43.2824C114.289 43.2824 113.798 43.101 113.468 42.7384C113.148 42.3864 112.988 41.949 112.988 41.4264C112.988 40.9464 113.105 40.4397 113.34 39.9064C113.585 39.373 113.905 38.8717 114.3 38.4024C114.705 37.933 115.148 37.5544 115.628 37.2664C116.108 36.9677 116.582 36.8184 117.052 36.8184C117.297 36.8184 117.521 36.8824 117.724 37.0104C117.937 37.1384 118.044 37.3997 118.044 37.7944C118.044 38.1997 117.921 38.5837 117.676 38.9464C117.441 39.2984 117.126 39.613 116.732 39.8904C116.348 40.1677 115.921 40.397 115.452 40.5784C114.993 40.749 114.534 40.8557 114.076 40.8984C114.054 41.005 114.038 41.1064 114.028 41.2024C114.017 41.2984 114.012 41.389 114.012 41.4744C114.012 41.6344 114.028 41.7944 114.06 41.9544C114.102 42.1144 114.172 42.2637 114.268 42.4024C114.364 42.5304 114.492 42.6317 114.652 42.7064C114.822 42.781 115.03 42.8184 115.276 42.8184C115.734 42.8184 116.188 42.6904 116.636 42.4344C117.084 42.1677 117.5 41.821 117.884 41.3944C118.268 40.9677 118.593 40.4984 118.86 39.9864L119.052 40.1304C118.764 40.7704 118.396 41.325 117.948 41.7944C117.51 42.2637 117.03 42.6264 116.508 42.8824C115.996 43.149 115.473 43.2824 114.94 43.2824ZM114.156 40.5944C114.444 40.4984 114.769 40.3597 115.132 40.1784C115.494 39.9864 115.841 39.7624 116.172 39.5064C116.513 39.2504 116.79 38.9677 117.004 38.6584C117.228 38.349 117.34 38.0237 117.34 37.6824C117.34 37.565 117.318 37.4744 117.276 37.4104C117.233 37.3464 117.142 37.3144 117.004 37.3144C116.748 37.3144 116.476 37.4157 116.188 37.6184C115.9 37.8104 115.622 38.0664 115.356 38.3864C115.089 38.7064 114.849 39.0584 114.636 39.4424C114.422 39.8264 114.262 40.2104 114.156 40.5944Z" fill="#F2F6EF"/>
<path d="M110.417 42.9947C110.054 42.9947 109.766 42.8987 109.553 42.7067C109.35 42.5147 109.249 42.264 109.249 41.9547C109.249 41.6347 109.324 41.2987 109.473 40.9467C109.622 40.5947 109.766 40.248 109.905 39.9067C110.054 39.5547 110.129 39.24 110.129 38.9627C110.129 38.6213 110.028 38.3707 109.825 38.2107C109.633 38.04 109.436 37.8853 109.233 37.7467C108.988 38.376 108.732 38.9733 108.465 39.5387C108.198 40.104 107.98 40.5307 107.809 40.8187L107.665 40.5467C107.814 40.2693 108.006 39.864 108.241 39.3307C108.486 38.7973 108.726 38.1893 108.961 37.5067C108.854 37.4 108.801 37.272 108.801 37.1227C108.801 36.8027 108.892 36.5413 109.073 36.3387C109.254 36.136 109.388 36.0347 109.473 36.0347C109.59 36.0347 109.654 36.088 109.665 36.1947C109.686 36.2907 109.697 36.3653 109.697 36.4187C109.697 36.472 109.665 36.5787 109.601 36.7387C109.548 36.888 109.521 36.9787 109.521 37.0107C109.521 37.16 109.601 37.2987 109.761 37.4267C109.932 37.544 110.124 37.6827 110.337 37.8427C110.55 37.992 110.737 38.1787 110.897 38.4027C111.068 38.616 111.153 38.8933 111.153 39.2347C111.153 39.5547 111.084 39.88 110.945 40.2107C110.817 40.5413 110.684 40.856 110.545 41.1547C110.417 41.4533 110.353 41.7147 110.353 41.9387C110.353 42.1307 110.401 42.2587 110.497 42.3227C110.593 42.3867 110.705 42.4187 110.833 42.4187C111.089 42.4187 111.35 42.3387 111.617 42.1787C111.894 42.0187 112.161 41.816 112.417 41.5707C112.673 41.3253 112.902 41.0693 113.105 40.8027C113.308 40.5253 113.457 40.2693 113.553 40.0347L113.761 40.1947C113.558 40.6427 113.281 41.0853 112.929 41.5227C112.577 41.9493 112.182 42.3013 111.745 42.5787C111.318 42.856 110.876 42.9947 110.417 42.9947Z" fill="#F2F6EF"/>
<path d="M101.448 43.3308C101.118 43.3308 100.84 43.2188 100.616 42.9948C100.382 42.7815 100.264 42.4508 100.264 42.0028C100.264 41.6188 100.35 41.2082 100.52 40.7708C100.691 40.3228 100.926 39.8855 101.224 39.4588C101.523 39.0215 101.859 38.6268 102.232 38.2748C102.616 37.9122 103.016 37.6242 103.432 37.4108C103.859 37.1975 104.28 37.0908 104.696 37.0908C105.112 37.0908 105.459 37.2028 105.736 37.4268C106.014 37.6402 106.152 37.9282 106.152 38.2908C106.152 38.5575 106.078 38.7388 105.928 38.8348C105.79 38.9308 105.603 38.9788 105.368 38.9788C105.39 38.8935 105.406 38.8028 105.416 38.7068C105.438 38.6002 105.448 38.5042 105.448 38.4188C105.448 38.1735 105.39 37.9655 105.272 37.7948C105.155 37.6135 104.952 37.5228 104.664 37.5228C104.366 37.5228 104.062 37.6295 103.752 37.8428C103.443 38.0455 103.144 38.3228 102.856 38.6748C102.568 39.0162 102.312 39.3895 102.088 39.7948C101.864 40.2002 101.688 40.6002 101.56 40.9948C101.432 41.3895 101.368 41.7415 101.368 42.0508C101.368 42.4668 101.512 42.6748 101.8 42.6748C102.046 42.6748 102.312 42.5628 102.6 42.3388C102.888 42.1042 103.182 41.8108 103.48 41.4588C103.79 41.0962 104.083 40.7228 104.36 40.3388C104.638 39.9548 104.883 39.6028 105.096 39.2828C105.139 39.2188 105.166 39.1868 105.176 39.1868C105.24 39.1975 105.32 39.2188 105.416 39.2508C105.523 39.2828 105.614 39.3255 105.688 39.3788C105.763 39.4322 105.8 39.5015 105.8 39.5868C105.8 39.6828 105.752 39.8162 105.656 39.9868C105.56 40.1468 105.454 40.3335 105.336 40.5468C105.219 40.7602 105.112 40.9788 105.016 41.2028C104.92 41.4162 104.872 41.6188 104.872 41.8108C104.872 41.9708 104.915 42.1308 105 42.2908C105.086 42.4402 105.224 42.5148 105.416 42.5148C105.704 42.5148 106.083 42.3068 106.552 41.8908C107.022 41.4642 107.496 40.8295 107.976 39.9868L108.136 40.1468C107.912 40.7228 107.624 41.2295 107.272 41.6668C106.92 42.1042 106.542 42.4455 106.136 42.6908C105.742 42.9362 105.352 43.0588 104.968 43.0588C104.574 43.0588 104.28 42.9415 104.088 42.7068C103.907 42.4722 103.816 42.2162 103.816 41.9388C103.816 41.8748 103.822 41.8055 103.832 41.7308C103.843 41.6455 103.854 41.5602 103.864 41.4748C103.406 42.0935 102.984 42.5575 102.6 42.8668C102.227 43.1762 101.843 43.3308 101.448 43.3308Z" fill="#F2F6EF"/>
<path d="M97.2205 43.4744C96.7085 43.4744 96.2818 43.3037 95.9405 42.9624C95.5991 42.6211 95.4285 42.1091 95.4285 41.4264C95.4285 40.8931 95.5298 40.3757 95.7325 39.8744C95.9458 39.3624 96.2231 38.9037 96.5645 38.4984C96.9058 38.0931 97.2845 37.7731 97.7005 37.5384C98.1165 37.2931 98.5271 37.1704 98.9325 37.1704C99.3698 37.1704 99.6685 37.2984 99.8285 37.5544C99.9885 37.8104 100.068 38.0771 100.068 38.3544C100.068 38.6637 99.9938 38.9357 99.8445 39.1704C99.7058 39.4051 99.5138 39.5224 99.2685 39.5224C99.0871 39.5224 98.9325 39.4424 98.8045 39.2824C98.9645 39.1971 99.1031 39.0264 99.2205 38.7704C99.3378 38.5037 99.3965 38.2531 99.3965 38.0184C99.3965 37.8904 99.3698 37.7944 99.3165 37.7304C99.2738 37.6557 99.1831 37.6184 99.0445 37.6184C98.7565 37.6184 98.4578 37.7464 98.1485 38.0024C97.8498 38.2584 97.5671 38.5891 97.3005 38.9944C97.0445 39.3997 96.8311 39.8264 96.6605 40.2744C96.5005 40.7224 96.4205 41.1437 96.4205 41.5384C96.4205 41.8691 96.5005 42.1731 96.6605 42.4504C96.8205 42.7277 97.1298 42.8664 97.5885 42.8664C98.0151 42.8664 98.4418 42.7491 98.8685 42.5144C99.3058 42.2797 99.7111 41.9437 100.084 41.5064C100.458 41.0691 100.756 40.5571 100.98 39.9704L101.188 40.1304C100.943 40.7704 100.607 41.3464 100.18 41.8584C99.7538 42.3597 99.2845 42.7544 98.7725 43.0424C98.2605 43.3304 97.7431 43.4744 97.2205 43.4744Z" fill="#F2F6EF"/>
<path d="M93.2233 42.8987C92.8499 42.8987 92.5673 42.8027 92.3753 42.6107C92.1939 42.4187 92.1033 42.1734 92.1033 41.8747C92.1033 41.6507 92.1406 41.4161 92.2153 41.1707C92.3006 40.9254 92.3806 40.6747 92.4553 40.4187C92.5299 40.1521 92.5673 39.8961 92.5673 39.6507C92.5673 39.3521 92.5033 39.1494 92.3753 39.0427C92.2579 38.9254 92.1086 38.8667 91.9273 38.8667C91.5966 38.8667 91.2606 39.0054 90.9193 39.2827C90.5779 39.5494 90.2473 39.8961 89.9273 40.3227C89.6073 40.7387 89.3086 41.1707 89.0313 41.6187C88.7539 42.0667 88.5086 42.4667 88.2953 42.8187C88.1246 42.8187 87.9646 42.7867 87.8153 42.7227C87.6553 42.6694 87.5326 42.5841 87.4473 42.4667C87.4473 42.4134 87.5059 42.2481 87.6233 41.9707C87.7299 41.6934 87.8579 41.3521 88.0073 40.9467C88.1566 40.5414 88.2899 40.1254 88.4073 39.6987C88.5246 39.2721 88.5833 38.8827 88.5833 38.5307C88.6473 38.4561 88.7486 38.3814 88.8873 38.3067C89.0259 38.2321 89.1699 38.1947 89.3193 38.1947C89.6073 38.1947 89.7513 38.3334 89.7513 38.6107C89.7513 38.7814 89.7033 39.0694 89.6073 39.4747C89.5113 39.8694 89.3886 40.2854 89.2393 40.7227C89.5273 40.2854 89.8473 39.8534 90.1993 39.4267C90.5619 38.9894 90.9459 38.6267 91.3513 38.3387C91.7566 38.0507 92.1619 37.9067 92.5673 37.9067C92.9833 37.9067 93.2819 38.0561 93.4633 38.3547C93.6553 38.6534 93.7513 38.9841 93.7513 39.3467C93.7513 39.6774 93.6979 39.9867 93.5913 40.2747C93.4846 40.5521 93.3726 40.8241 93.2553 41.0907C93.1486 41.3467 93.0953 41.6081 93.0953 41.8747C93.0953 42.0987 93.1379 42.2587 93.2233 42.3547C93.3193 42.4401 93.4366 42.4827 93.5753 42.4827C93.8419 42.4827 94.1086 42.3601 94.3753 42.1147C94.6419 41.8587 94.8979 41.5387 95.1433 41.1547C95.3993 40.7707 95.6233 40.3814 95.8153 39.9867L95.9913 40.1947C95.7673 40.7174 95.5166 41.1814 95.2393 41.5867C94.9619 41.9921 94.6579 42.3121 94.3273 42.5467C93.9966 42.7814 93.6286 42.8987 93.2233 42.8987Z" fill="#F2F6EF"/>
<path d="M85.348 42.9946C84.932 42.9946 84.6226 42.8613 84.42 42.5946C84.2173 42.3386 84.116 42.024 84.116 41.6506C84.116 41.4053 84.1586 41.096 84.244 40.7226C84.34 40.3493 84.4626 39.96 84.612 39.5546C84.7613 39.1386 84.932 38.7493 85.124 38.3866C85.3266 38.024 85.54 37.7306 85.764 37.5066C85.988 37.272 86.2066 37.1546 86.42 37.1546C86.516 37.1546 86.596 37.1866 86.66 37.2506C86.7346 37.304 86.772 37.3893 86.772 37.5066C86.772 37.6346 86.6866 37.8426 86.516 38.1306C86.356 38.4186 86.164 38.7493 85.94 39.1226C85.716 39.496 85.5186 39.8906 85.348 40.3066C85.188 40.712 85.108 41.1013 85.108 41.4746C85.108 41.8586 85.172 42.1146 85.3 42.2426C85.428 42.3706 85.6253 42.4346 85.892 42.4346C86.2546 42.4346 86.6386 42.2533 87.044 41.8906C87.46 41.528 87.8973 40.8933 88.356 39.9866L88.5 40.1466C88.1906 41.064 87.7426 41.768 87.156 42.2586C86.58 42.7493 85.9773 42.9946 85.348 42.9946ZM87.268 35.6666C87.0973 35.6666 86.9426 35.624 86.804 35.5386C86.676 35.4533 86.612 35.32 86.612 35.1386C86.612 34.9146 86.74 34.7226 86.996 34.5626C87.2626 34.392 87.524 34.3066 87.78 34.3066C87.94 34.3066 88.068 34.344 88.164 34.4186C88.26 34.4933 88.308 34.6213 88.308 34.8026C88.308 35.0053 88.196 35.2026 87.972 35.3946C87.7586 35.576 87.524 35.6666 87.268 35.6666Z" fill="#F2F6EF"/>
<path d="M81.8074 43.1868C81.5087 43.1868 81.2527 43.0855 81.0394 42.8828C80.8261 42.6801 80.6554 42.4241 80.5274 42.1148C80.4101 41.8055 80.3194 41.4908 80.2554 41.1708C80.2021 40.8401 80.1754 40.5521 80.1754 40.3068C80.2927 40.3068 80.4634 40.2801 80.6874 40.2268C80.9114 40.1628 81.1407 40.0721 81.3754 39.9548C81.6101 39.8268 81.8074 39.6668 81.9674 39.4748C82.1381 39.2721 82.2234 39.0375 82.2234 38.7708C82.2234 38.5468 82.1434 38.3708 81.9834 38.2428C81.8234 38.1148 81.6367 38.0508 81.4234 38.0508C81.0927 38.0508 80.7834 38.1681 80.4954 38.4028C80.2074 38.6268 79.9461 38.9255 79.7114 39.2988C79.4874 39.6615 79.2847 40.0508 79.1034 40.4668C78.9221 40.8828 78.7674 41.2775 78.6394 41.6508C78.5114 42.0241 78.4047 42.3335 78.3194 42.5788C78.2554 42.7708 78.1647 42.8988 78.0474 42.9628C77.9301 43.0375 77.8074 43.0748 77.6794 43.0748C77.4981 43.0748 77.3647 43.0001 77.2794 42.8508C77.2047 42.7015 77.1567 42.5148 77.1354 42.2908C77.1247 42.0561 77.1194 41.8161 77.1194 41.5708C77.1194 41.0161 77.2101 40.3761 77.3914 39.6508C77.5727 38.9255 77.8127 38.1735 78.1114 37.3948C78.4207 36.6055 78.7567 35.8428 79.1194 35.1068C79.4821 34.3708 79.8447 33.7041 80.2074 33.1068C80.5701 32.5095 80.9061 32.0348 81.2154 31.6828C81.5247 31.3308 81.7754 31.1548 81.9674 31.1548C82.1167 31.1548 82.2341 31.2561 82.3194 31.4588C82.4154 31.6615 82.4634 31.9068 82.4634 32.1948C82.4634 32.5575 82.3834 32.9681 82.2234 33.4268C82.0634 33.8748 81.8341 34.3281 81.5354 34.7868C81.2474 35.2455 80.9007 35.6775 80.4954 36.0828C80.1007 36.4881 79.6687 36.8348 79.1994 37.1228C78.8474 37.9868 78.5807 38.8295 78.3994 39.6508C78.2287 40.4615 78.1434 41.1441 78.1434 41.6988C78.3141 41.2721 78.5167 40.8028 78.7514 40.2908C78.9967 39.7788 79.2741 39.2881 79.5834 38.8188C79.8927 38.3495 80.2287 37.9655 80.5914 37.6668C80.9541 37.3681 81.3327 37.2188 81.7274 37.2188C82.1221 37.2188 82.4581 37.3575 82.7354 37.6348C83.0127 37.9121 83.1514 38.2481 83.1514 38.6428C83.1514 38.9841 83.0607 39.2775 82.8794 39.5228C82.7087 39.7575 82.4954 39.9495 82.2394 40.0988C81.9941 40.2375 81.7434 40.3441 81.4874 40.4188C81.2421 40.4828 81.0394 40.5148 80.8794 40.5148C80.8901 40.6001 80.9221 40.7548 80.9754 40.9788C81.0287 41.2028 81.1034 41.4375 81.1994 41.6828C81.3061 41.9281 81.4341 42.1415 81.5834 42.3228C81.7327 42.4935 81.9141 42.5788 82.1274 42.5788C82.4367 42.5788 82.7301 42.4615 83.0074 42.2268C83.2847 41.9921 83.5461 41.6828 83.7914 41.2988C84.0474 40.9041 84.2821 40.4615 84.4954 39.9708L84.6554 40.1308C84.5061 40.6535 84.2767 41.1495 83.9674 41.6188C83.6581 42.0775 83.3114 42.4508 82.9274 42.7388C82.5541 43.0375 82.1807 43.1868 81.8074 43.1868ZM79.4714 36.4828C79.9621 36.0881 80.3887 35.6401 80.7514 35.1388C81.1247 34.6375 81.4127 34.1575 81.6154 33.6988C81.8181 33.2295 81.9194 32.8615 81.9194 32.5948C81.9194 32.5415 81.9141 32.5041 81.9034 32.4828C81.9034 32.4615 81.8927 32.4508 81.8714 32.4508C81.7647 32.4508 81.5781 32.6375 81.3114 33.0108C81.0554 33.3841 80.7621 33.8801 80.4314 34.4988C80.1007 35.1068 79.7807 35.7681 79.4714 36.4828Z" fill="#F2F6EF"/>
<path d="M73.2197 43.3948C72.7184 43.3948 72.3184 43.2828 72.0197 43.0588C71.7317 42.8455 71.5291 42.5788 71.4117 42.2588C71.2837 41.9388 71.2197 41.6188 71.2197 41.2988C71.2197 40.9788 71.2624 40.7335 71.3477 40.5628C71.4331 40.3921 71.5344 40.2641 71.6517 40.1788C71.7797 40.0935 71.8971 40.0295 72.0037 39.9868C72.1211 39.9441 72.2011 39.9015 72.2437 39.8588C72.5637 39.5068 72.8571 39.1388 73.1237 38.7548C73.3904 38.3708 73.6251 37.9655 73.8277 37.5388V37.3468C73.8277 36.9521 73.8917 36.6748 74.0197 36.5148C74.1584 36.3441 74.3024 36.2588 74.4517 36.2588C74.5371 36.2588 74.6011 36.2801 74.6437 36.3228C74.6864 36.3655 74.7077 36.4135 74.7077 36.4668C74.7077 36.5201 74.6917 36.6055 74.6597 36.7228C74.6277 36.8401 74.6117 36.9895 74.6117 37.1708C74.6117 37.5228 74.6811 37.9068 74.8197 38.3228C74.9584 38.7281 75.0971 39.1601 75.2357 39.6188C75.3744 40.0668 75.4437 40.5361 75.4437 41.0268C75.4437 41.1655 75.4331 41.3041 75.4117 41.4428C75.4011 41.5708 75.3797 41.6935 75.3477 41.8108C75.7211 41.7468 76.0731 41.5815 76.4037 41.3148C76.7344 41.0375 77.0544 40.6001 77.3637 40.0028L77.5077 40.1628C77.3051 40.7495 77.0011 41.1975 76.5957 41.5068C76.1904 41.8055 75.7477 41.9921 75.2677 42.0668C75.0971 42.5255 74.8251 42.8615 74.4517 43.0748C74.0891 43.2881 73.6784 43.3948 73.2197 43.3948ZM73.2517 42.8348C73.3797 42.8348 73.5504 42.7921 73.7637 42.7068C73.9771 42.6215 74.1424 42.4028 74.2597 42.0508C73.8117 41.9655 73.4117 41.7895 73.0597 41.5228C72.7184 41.2561 72.4624 40.9895 72.2917 40.7228C72.0571 40.7335 71.9397 40.9201 71.9397 41.2828C71.9397 41.6668 72.0517 42.0241 72.2757 42.3548C72.5104 42.6748 72.8357 42.8348 73.2517 42.8348ZM74.3397 41.7948C74.3611 41.6881 74.3771 41.5761 74.3877 41.4588C74.3984 41.3415 74.4037 41.2028 74.4037 41.0428C74.4037 40.5415 74.3397 40.0455 74.2117 39.5548C74.0944 39.0535 73.9931 38.5841 73.9077 38.1468C73.6624 38.5521 73.4011 38.9415 73.1237 39.3148C72.8571 39.6775 72.6011 39.9815 72.3557 40.2268C72.5157 40.5681 72.7611 40.8881 73.0917 41.1868C73.4331 41.4855 73.8491 41.6881 74.3397 41.7948Z" fill="#F2F6EF"/>
<path d="M60.5961 43.9707C59.9561 43.9707 59.4014 43.8374 58.9321 43.5707C58.4627 43.304 58.1001 42.952 57.8441 42.5147C57.5987 42.0667 57.4761 41.5814 57.4761 41.0587C57.4761 40.568 57.5827 40.088 57.7961 39.6187C58.0094 39.1494 58.3027 38.7227 58.6761 38.3387C59.0601 37.944 59.5027 37.624 60.0041 37.3787C60.5054 37.1227 61.0441 36.968 61.6201 36.9147C61.2041 36.5734 60.8947 36.1787 60.6921 35.7307C60.5001 35.2827 60.4041 34.8347 60.4041 34.3867C60.4041 33.8214 60.5481 33.288 60.8361 32.7867C61.1241 32.2747 61.5134 31.864 62.0041 31.5547C62.5054 31.2347 63.0761 31.0747 63.7161 31.0747C64.2921 31.0747 64.7241 31.2187 65.0121 31.5067C65.3107 31.7947 65.4601 32.216 65.4601 32.7707C65.4601 33.1654 65.3961 33.5547 65.2681 33.9387C65.1401 34.312 64.9801 34.6214 64.7881 34.8667C64.6067 35.1014 64.4254 35.2187 64.2441 35.2187C64.1267 35.2187 64.0147 35.1707 63.9081 35.0747C63.8014 34.968 63.7161 34.8454 63.6521 34.7067C64.0254 34.376 64.3347 34.0347 64.5801 33.6827C64.8361 33.32 64.9641 32.9307 64.9641 32.5147C64.9641 32.184 64.8734 31.9174 64.6921 31.7147C64.5214 31.5014 64.2494 31.3947 63.8761 31.3947C63.3747 31.3947 62.9534 31.5494 62.6121 31.8587C62.2707 32.1574 62.0094 32.5574 61.8281 33.0587C61.6574 33.5494 61.5721 34.0827 61.5721 34.6587C61.5721 34.9147 61.5934 35.1867 61.6361 35.4747C61.6894 35.7627 61.7801 36.0454 61.9081 36.3227C62.0467 36.6 62.2441 36.8507 62.5001 37.0747C61.7854 37.192 61.1614 37.464 60.6281 37.8907C60.1054 38.3174 59.6947 38.8187 59.3961 39.3947C59.1081 39.9707 58.9641 40.5414 58.9641 41.1067C58.9641 41.4587 59.0281 41.816 59.1561 42.1787C59.2947 42.5307 59.5134 42.824 59.8121 43.0587C60.1107 43.304 60.5107 43.4267 61.0121 43.4267C61.5774 43.4267 62.1214 43.2827 62.6441 42.9947C63.1774 42.7067 63.6574 42.3227 64.0841 41.8427C64.5214 41.3627 64.8787 40.824 65.1561 40.2267C65.4334 39.6187 65.6094 38.9947 65.6841 38.3547C65.4601 38.3654 65.2521 38.3814 65.0601 38.4027C64.8787 38.424 64.6761 38.456 64.4521 38.4987C64.2281 38.5307 63.9401 38.584 63.5881 38.6587C63.6094 38.2107 63.7801 37.912 64.1001 37.7627C64.4201 37.6134 64.8041 37.5387 65.2521 37.5387C65.5721 37.5387 65.8761 37.56 66.1641 37.6027C66.4521 37.6454 66.7241 37.688 66.9801 37.7307C67.2467 37.7734 67.4867 37.8 67.7001 37.8107C67.5827 38.056 67.4654 38.2054 67.3481 38.2587C67.2414 38.3014 67.1347 38.3227 67.0281 38.3227C66.8467 38.3227 66.6761 38.328 66.5161 38.3387C66.3667 38.3387 66.2281 38.3387 66.1001 38.3387C66.0254 39.0747 65.8227 39.7787 65.4921 40.4507C65.1721 41.1227 64.7561 41.7254 64.2441 42.2587C63.7427 42.7814 63.1774 43.1974 62.5481 43.5067C61.9294 43.816 61.2787 43.9707 60.5961 43.9707Z" fill="#F2F6EF"/>
<path d="M50.9145 43.0586C50.4559 43.0586 50.1252 42.8986 49.9225 42.5786C49.7305 42.2693 49.6345 41.8799 49.6345 41.4106C49.6345 40.8986 49.7305 40.2906 49.9225 39.5866C50.1145 38.8826 50.3652 38.1413 50.6745 37.3626C50.9945 36.5839 51.3412 35.8266 51.7145 35.0906C52.0879 34.3439 52.4612 33.6666 52.8345 33.0586C53.2079 32.4506 53.5492 31.9653 53.8585 31.6026C54.1785 31.2399 54.4292 31.0586 54.6105 31.0586C54.7279 31.0586 54.8239 31.1279 54.8985 31.2666C54.9732 31.3946 55.0319 31.5546 55.0745 31.7466C55.1172 31.9279 55.1385 32.0933 55.1385 32.2426C55.1385 32.5306 55.0639 32.9093 54.9145 33.3786C54.7759 33.8373 54.5732 34.3546 54.3065 34.9306C54.0505 35.4959 53.7412 36.0719 53.3785 36.6586C53.0265 37.2346 52.6372 37.7893 52.2105 38.3226C51.7945 38.8559 51.3519 39.3146 50.8825 39.6986C50.8185 39.9866 50.7652 40.2693 50.7225 40.5466C50.6905 40.8133 50.6745 41.0693 50.6745 41.3146C50.6745 41.7306 50.7332 42.0399 50.8505 42.2426C50.9679 42.4453 51.1439 42.5466 51.3785 42.5466C51.6665 42.5466 51.9492 42.4186 52.2265 42.1626C52.5145 41.9066 52.7812 41.5866 53.0265 41.2026C53.2825 40.8079 53.5012 40.4026 53.6825 39.9866L53.9225 40.1146C53.4959 41.0213 53.0319 41.7413 52.5305 42.2746C52.0292 42.7973 51.4905 43.0586 50.9145 43.0586ZM51.0265 39.1546C51.3999 38.7813 51.7625 38.3546 52.1145 37.8746C52.4665 37.3839 52.7919 36.8773 53.0905 36.3546C53.3999 35.8319 53.6719 35.3253 53.9065 34.8346C54.1412 34.3439 54.3225 33.9066 54.4505 33.5226C54.5785 33.1279 54.6425 32.8239 54.6425 32.6106C54.6425 32.5039 54.6265 32.4346 54.5945 32.4026C54.5732 32.3706 54.5519 32.3546 54.5305 32.3546C54.4452 32.3546 54.2959 32.4933 54.0825 32.7706C53.8799 33.0373 53.6399 33.3999 53.3625 33.8586C53.0852 34.3173 52.8025 34.8399 52.5145 35.4266C52.2265 36.0133 51.9492 36.6266 51.6825 37.2666C51.4265 37.9066 51.2079 38.5359 51.0265 39.1546Z" fill="#F2F6EF"/>
<path d="M43.3859 43.3308C43.0552 43.3308 42.7779 43.2188 42.5539 42.9948C42.3192 42.7815 42.2019 42.4508 42.2019 42.0028C42.2019 41.6188 42.2872 41.2082 42.4579 40.7708C42.6286 40.3228 42.8632 39.8855 43.1619 39.4588C43.4606 39.0215 43.7966 38.6268 44.1699 38.2748C44.5539 37.9122 44.9539 37.6242 45.3699 37.4108C45.7966 37.1975 46.2179 37.0908 46.6339 37.0908C47.0499 37.0908 47.3966 37.2028 47.6739 37.4268C47.9512 37.6402 48.0899 37.9282 48.0899 38.2908C48.0899 38.5575 48.0152 38.7388 47.8659 38.8348C47.7272 38.9308 47.5406 38.9788 47.3059 38.9788C47.3272 38.8935 47.3432 38.8028 47.3539 38.7068C47.3752 38.6002 47.3859 38.5042 47.3859 38.4188C47.3859 38.1735 47.3272 37.9655 47.2099 37.7948C47.0926 37.6135 46.8899 37.5228 46.6019 37.5228C46.3032 37.5228 45.9992 37.6295 45.6899 37.8428C45.3806 38.0455 45.0819 38.3228 44.7939 38.6748C44.5059 39.0162 44.2499 39.3895 44.0259 39.7948C43.8019 40.2002 43.6259 40.6002 43.4979 40.9948C43.3699 41.3895 43.3059 41.7415 43.3059 42.0508C43.3059 42.4668 43.4499 42.6748 43.7379 42.6748C43.9832 42.6748 44.2499 42.5628 44.5379 42.3388C44.8259 42.1042 45.1192 41.8108 45.4179 41.4588C45.7272 41.0962 46.0206 40.7228 46.2979 40.3388C46.5752 39.9548 46.8206 39.6028 47.0339 39.2828C47.0766 39.2188 47.1032 39.1868 47.1139 39.1868C47.1779 39.1975 47.2579 39.2188 47.3539 39.2508C47.4606 39.2828 47.5512 39.3255 47.6259 39.3788C47.7006 39.4322 47.7379 39.5015 47.7379 39.5868C47.7379 39.6828 47.6899 39.8162 47.5939 39.9868C47.4979 40.1468 47.3912 40.3335 47.2739 40.5468C47.1566 40.7602 47.0499 40.9788 46.9539 41.2028C46.8579 41.4162 46.8099 41.6188 46.8099 41.8108C46.8099 41.9708 46.8526 42.1308 46.9379 42.2908C47.0232 42.4402 47.1619 42.5148 47.3539 42.5148C47.6419 42.5148 48.0206 42.3068 48.4899 41.8908C48.9592 41.4642 49.4339 40.8295 49.9139 39.9868L50.0739 40.1468C49.8499 40.7228 49.5619 41.2295 49.2099 41.6668C48.8579 42.1042 48.4792 42.4455 48.0739 42.6908C47.6792 42.9362 47.2899 43.0588 46.9059 43.0588C46.5112 43.0588 46.2179 42.9415 46.0259 42.7068C45.8446 42.4722 45.7539 42.2162 45.7539 41.9388C45.7539 41.8748 45.7592 41.8055 45.7699 41.7308C45.7806 41.6455 45.7912 41.5602 45.8019 41.4748C45.3432 42.0935 44.9219 42.5575 44.5379 42.8668C44.1646 43.1762 43.7806 43.3308 43.3859 43.3308Z" fill="#F2F6EF"/>
<path d="M39.9105 42.9946C39.4945 42.9946 39.1851 42.8613 38.9825 42.5946C38.7798 42.3386 38.6785 42.024 38.6785 41.6506C38.6785 41.4053 38.7211 41.096 38.8065 40.7226C38.9025 40.3493 39.0251 39.96 39.1745 39.5546C39.3238 39.1386 39.4945 38.7493 39.6865 38.3866C39.8891 38.024 40.1025 37.7306 40.3265 37.5066C40.5505 37.272 40.7691 37.1546 40.9825 37.1546C41.0785 37.1546 41.1585 37.1866 41.2225 37.2506C41.2971 37.304 41.3345 37.3893 41.3345 37.5066C41.3345 37.6346 41.2491 37.8426 41.0785 38.1306C40.9185 38.4186 40.7265 38.7493 40.5025 39.1226C40.2785 39.496 40.0811 39.8906 39.9105 40.3066C39.7505 40.712 39.6705 41.1013 39.6705 41.4746C39.6705 41.8586 39.7345 42.1146 39.8625 42.2426C39.9905 42.3706 40.1878 42.4346 40.4545 42.4346C40.8171 42.4346 41.2011 42.2533 41.6065 41.8906C42.0225 41.528 42.4598 40.8933 42.9185 39.9866L43.0625 40.1466C42.7531 41.064 42.3051 41.768 41.7185 42.2586C41.1425 42.7493 40.5398 42.9946 39.9105 42.9946ZM41.8305 35.6666C41.6598 35.6666 41.5051 35.624 41.3665 35.5386C41.2385 35.4533 41.1745 35.32 41.1745 35.1386C41.1745 34.9146 41.3025 34.7226 41.5585 34.5626C41.8251 34.392 42.0865 34.3066 42.3425 34.3066C42.5025 34.3066 42.6305 34.344 42.7265 34.4186C42.8225 34.4933 42.8705 34.6213 42.8705 34.8026C42.8705 35.0053 42.7585 35.2026 42.5345 35.3946C42.3211 35.576 42.0865 35.6666 41.8305 35.6666Z" fill="#F2F6EF"/>
<path d="M35.2986 43.4744C34.7866 43.4744 34.3599 43.3037 34.0186 42.9624C33.6773 42.6211 33.5066 42.1091 33.5066 41.4264C33.5066 40.8931 33.6079 40.3757 33.8106 39.8744C34.0239 39.3624 34.3013 38.9037 34.6426 38.4984C34.9839 38.0931 35.3626 37.7731 35.7786 37.5384C36.1946 37.2931 36.6053 37.1704 37.0106 37.1704C37.4479 37.1704 37.7466 37.2984 37.9066 37.5544C38.0666 37.8104 38.1466 38.0771 38.1466 38.3544C38.1466 38.6637 38.0719 38.9357 37.9226 39.1704C37.7839 39.4051 37.5919 39.5224 37.3466 39.5224C37.1653 39.5224 37.0106 39.4424 36.8826 39.2824C37.0426 39.1971 37.1813 39.0264 37.2986 38.7704C37.4159 38.5037 37.4746 38.2531 37.4746 38.0184C37.4746 37.8904 37.4479 37.7944 37.3946 37.7304C37.3519 37.6557 37.2613 37.6184 37.1226 37.6184C36.8346 37.6184 36.5359 37.7464 36.2266 38.0024C35.9279 38.2584 35.6453 38.5891 35.3786 38.9944C35.1226 39.3997 34.9093 39.8264 34.7386 40.2744C34.5786 40.7224 34.4986 41.1437 34.4986 41.5384C34.4986 41.8691 34.5786 42.1731 34.7386 42.4504C34.8986 42.7277 35.2079 42.8664 35.6666 42.8664C36.0933 42.8664 36.5199 42.7491 36.9466 42.5144C37.3839 42.2797 37.7893 41.9437 38.1626 41.5064C38.5359 41.0691 38.8346 40.5571 39.0586 39.9704L39.2666 40.1304C39.0213 40.7704 38.6853 41.3464 38.2586 41.8584C37.8319 42.3597 37.3626 42.7544 36.8506 43.0424C36.3386 43.3304 35.8213 43.4744 35.2986 43.4744Z" fill="#F2F6EF"/>
<path d="M27.3859 43.3308C27.0552 43.3308 26.7779 43.2188 26.5539 42.9948C26.3192 42.7815 26.2019 42.4508 26.2019 42.0028C26.2019 41.6188 26.2872 41.2082 26.4579 40.7708C26.6286 40.3228 26.8632 39.8855 27.1619 39.4588C27.4606 39.0215 27.7966 38.6268 28.1699 38.2748C28.5539 37.9122 28.9539 37.6242 29.3699 37.4108C29.7966 37.1975 30.2179 37.0908 30.6339 37.0908C31.0499 37.0908 31.3966 37.2028 31.6739 37.4268C31.9512 37.6402 32.0899 37.9282 32.0899 38.2908C32.0899 38.5575 32.0152 38.7388 31.8659 38.8348C31.7272 38.9308 31.5406 38.9788 31.3059 38.9788C31.3272 38.8935 31.3432 38.8028 31.3539 38.7068C31.3752 38.6002 31.3859 38.5042 31.3859 38.4188C31.3859 38.1735 31.3272 37.9655 31.2099 37.7948C31.0926 37.6135 30.8899 37.5228 30.6019 37.5228C30.3032 37.5228 29.9992 37.6295 29.6899 37.8428C29.3806 38.0455 29.0819 38.3228 28.7939 38.6748C28.5059 39.0162 28.2499 39.3895 28.0259 39.7948C27.8019 40.2002 27.6259 40.6002 27.4979 40.9948C27.3699 41.3895 27.3059 41.7415 27.3059 42.0508C27.3059 42.4668 27.4499 42.6748 27.7379 42.6748C27.9832 42.6748 28.2499 42.5628 28.5379 42.3388C28.8259 42.1042 29.1192 41.8108 29.4179 41.4588C29.7272 41.0962 30.0206 40.7228 30.2979 40.3388C30.5752 39.9548 30.8206 39.6028 31.0339 39.2828C31.0766 39.2188 31.1032 39.1868 31.1139 39.1868C31.1779 39.1975 31.2579 39.2188 31.3539 39.2508C31.4606 39.2828 31.5512 39.3255 31.6259 39.3788C31.7006 39.4322 31.7379 39.5015 31.7379 39.5868C31.7379 39.6828 31.6899 39.8162 31.5939 39.9868C31.4979 40.1468 31.3912 40.3335 31.2739 40.5468C31.1566 40.7602 31.0499 40.9788 30.9539 41.2028C30.8579 41.4162 30.8099 41.6188 30.8099 41.8108C30.8099 41.9708 30.8526 42.1308 30.9379 42.2908C31.0232 42.4402 31.1619 42.5148 31.3539 42.5148C31.6419 42.5148 32.0206 42.3068 32.4899 41.8908C32.9592 41.4642 33.4339 40.8295 33.9139 39.9868L34.0739 40.1468C33.8499 40.7228 33.5619 41.2295 33.2099 41.6668C32.8579 42.1042 32.4792 42.4455 32.0739 42.6908C31.6792 42.9362 31.2899 43.0588 30.9059 43.0588C30.5112 43.0588 30.2179 42.9415 30.0259 42.7068C29.8446 42.4722 29.7539 42.2162 29.7539 41.9388C29.7539 41.8748 29.7592 41.8055 29.7699 41.7308C29.7806 41.6455 29.7912 41.5602 29.8019 41.4748C29.3432 42.0935 28.9219 42.5575 28.5379 42.8668C28.1646 43.1762 27.7806 43.3308 27.3859 43.3308Z" fill="#F2F6EF"/>
<path d="M22.003 43.9707C21.5123 43.928 21.2083 43.7947 21.091 43.5707C20.9736 43.3467 20.915 43.0587 20.915 42.7067C20.915 42.3227 20.995 41.8533 21.155 41.2987C21.315 40.7333 21.5123 40.12 21.747 39.4587C21.9923 38.7973 22.2376 38.136 22.483 37.4747C22.355 37.4853 22.2163 37.5013 22.067 37.5227C21.9283 37.5333 21.7523 37.5547 21.539 37.5867C21.3256 37.608 21.0483 37.6453 20.707 37.6987C20.7283 37.4213 20.8296 37.208 21.011 37.0587C21.203 36.8987 21.4536 36.7813 21.763 36.7067C22.0723 36.632 22.419 36.5893 22.803 36.5787C23.1016 35.7573 23.4056 34.9573 23.715 34.1787C24.035 33.3893 24.3496 32.6693 24.659 32.0187C24.5523 32.008 24.4456 32.0027 24.339 32.0027C24.243 31.992 24.1416 31.9867 24.035 31.9867C23.3523 31.9867 22.8243 32.056 22.451 32.1947C22.0776 32.3333 21.8216 32.5467 21.683 32.8347C21.5443 33.1227 21.475 33.4907 21.475 33.9387C21.475 34.1733 21.491 34.392 21.523 34.5947C21.555 34.7867 21.6083 34.9893 21.683 35.2027C21.3203 35.1387 21.0536 35 20.883 34.7867C20.7123 34.5627 20.627 34.2853 20.627 33.9547C20.627 33.4 20.8243 32.9147 21.219 32.4987C21.6136 32.072 22.1416 31.7413 22.803 31.5067C23.475 31.2613 24.2163 31.1387 25.027 31.1387C25.5923 31.1387 26.1363 31.1813 26.659 31.2667C27.1923 31.3413 27.7096 31.3787 28.211 31.3787C28.435 31.3787 28.6376 31.368 28.819 31.3467C29.011 31.3147 29.203 31.272 29.395 31.2187C29.0003 31.6667 28.6696 31.9653 28.403 32.1147C28.1363 32.264 27.8643 32.3387 27.587 32.3387C27.3416 32.3387 27.0216 32.3067 26.627 32.2427C26.243 32.168 25.8056 32.1093 25.315 32.0667C25.1763 32.4187 25.0216 32.8453 24.851 33.3467C24.6803 33.8373 24.5043 34.3653 24.323 34.9307C24.1416 35.4853 23.9603 36.04 23.779 36.5947C24.3123 36.6267 24.8136 36.6747 25.283 36.7387C25.763 36.8027 26.195 36.84 26.579 36.8507C26.4936 36.9787 26.3923 37.08 26.275 37.1547C26.1683 37.2187 26.0136 37.2667 25.811 37.2987C25.6083 37.3307 25.3256 37.3573 24.963 37.3787C24.611 37.3893 24.1363 37.4 23.539 37.4107C23.475 37.6347 23.395 37.9013 23.299 38.2107C23.203 38.52 23.1176 38.8133 23.043 39.0907C22.9683 39.368 22.9096 39.5707 22.867 39.6987C22.6323 40.52 22.4296 41.288 22.259 42.0027C22.099 42.7173 22.0136 43.3733 22.003 43.9707Z" fill="#F2F6EF"/>
</svg>
